<svg width="197" height="44" viewBox="0 0 197 44" fill="none" xmlns="http://www.w3.org/2000/svg">
<g id="Frame" clip-path="url(#clip0_725_1171)">
<g id="Group">
<path id="Vector" d="M101.744 8.42505V0.209133H107.44V1.64318H103.431V3.57019H106.843V5.00424H103.431V6.99847H107.44V8.42505H101.744ZM57.188 6.99847V5.26566H53.0445C51.8127 8.30555 49.013 10.3595 44.5783 11.5172L43.436 9.29146C48.0499 8.15617 50.1553 6.10219 50.5136 3.55525H44.5335V1.28467H53.7612C53.7612 1.88219 53.7164 2.44237 53.6492 2.99508H57.188V0H60.1669V11.0392H57.188V9.26159H52.8429V6.99847H57.188ZM60.3013 15.2368C60.3013 17.6344 57.5688 19.173 53.4925 19.173C49.3713 19.173 46.6613 17.6344 46.6613 15.2368C46.6613 12.7944 49.3713 11.3006 53.4925 11.3006C57.5688 11.3006 60.3013 12.7944 60.3013 15.2368ZM49.6177 15.2368C49.6177 16.3945 51.0511 16.9696 53.4925 16.9696C55.9338 16.9696 57.3672 16.3945 57.3672 15.2368C57.3672 14.0567 55.9338 13.4816 53.4925 13.4816C51.0511 13.4816 49.6177 14.0642 49.6177 15.2368ZM66.6621 0.896282V7.55118C69.0363 7.50637 71.5896 7.31964 74.2548 6.82668L74.5908 9.09727C71.3208 9.7396 68.2076 9.9338 65.3855 9.9338H63.6833V0.896282H66.6621ZM78.7642 11.704V19.046H65.6095V11.704H78.7642ZM68.5435 13.9297V16.8202H75.8675V13.9297H68.5435ZM78.7642 0V4.0258H81.4295V6.33373H78.7642V10.8525H75.7853V0H78.7642ZM44.8993 26.5673H54.5675V28.681H47.6542V36.6281L55.4784 36.4787V38.5924L44.8993 38.809V26.5673ZM57.748 24.7971H60.5028V44H57.748V24.7971ZM67.237 33.2894C68.1478 32.2064 68.215 31.9301 68.215 30.9591V28.6661H64.2581V26.5524H74.882V28.6661H70.9251V30.9591C70.9251 31.9301 70.9923 32.2139 71.9031 33.2894L75.6136 37.502L73.6576 39.0555L69.9471 34.7982C69.8127 34.6488 69.7007 34.4919 69.5813 34.3426L69.193 34.7982L65.49 39.0555L63.534 37.502L67.237 33.2894ZM80.2051 24.7971V43.9552H77.4502V24.7971H80.2051ZM83.8185 25.6636H93.2777V27.7773H86.5435V29.0545H92.9567V31.1085H86.5435V32.6396L93.8451 32.4902V34.6264L83.8111 34.843V25.6636H83.8185ZM87.1856 35.7691H99.8999V40.7809H89.9405V42.0132H100.4V43.9776H87.2304V38.9211H97.1898V37.7783H87.1856V35.7691ZM97.1524 28.9425V24.7971H99.9073V35.0372H97.1524V30.9964H93.8526V28.9425H97.1524ZM102.789 26.9781H107.112V24.7971H109.747V26.9781H114.07V29.0918H112.502C113.092 29.8014 113.458 30.6902 113.458 31.6612C113.458 34.3426 111.367 36.2397 108.411 36.2397C105.499 36.2397 103.431 34.3351 103.409 31.6612C103.409 30.6902 103.797 29.8014 104.364 29.0918H102.797V26.9781H102.789ZM108.411 34.1708C109.867 34.1708 110.845 33.1774 110.845 31.6612C110.845 30.13 109.867 29.1142 108.411 29.1142C106.977 29.1142 106.022 30.13 106.022 31.6612C106.022 33.1774 106.977 34.1708 108.411 34.1708ZM106.388 37.9949H119.513V43.9776H116.758V40.0489H106.388V37.9949ZM119.513 24.7971V37.0912H116.758V34.9774H114.048V32.901H116.758V31.2578H114.092V29.2039H116.758V24.7971H119.513ZM125.627 30.8919C126.426 30.1748 126.493 29.9209 126.493 29.2487V25.7681H129.173V29.2487C129.173 29.9209 129.218 30.1524 130.039 30.8919L133.772 34.1782L132.04 35.9484L128.307 32.662C128.128 32.5126 127.964 32.3409 127.829 32.184C127.695 32.3334 127.531 32.5052 127.352 32.662L123.619 35.9484L121.887 34.1782L125.627 30.8919ZM125.425 37.6737H128.158V41.9087H138.715V43.9851H125.425V37.6737ZM135.818 24.8196H138.573V38.6447H135.818V24.8196ZM155.109 33.0952H150.331C148.607 36.1202 145.284 38.0397 142.029 38.824L141.417 36.4488C145.441 35.5003 148.831 32.9085 148.92 28.6736H142.007V26.5598H151.511V28.6736C151.489 29.5176 151.377 30.2943 151.167 31.0263H155.102V24.7971H157.834V43.9776H155.102V33.0952H155.109ZM164.098 30.6753C164.897 30.0927 164.919 29.8761 164.919 29.2487V27.8221H160.828V25.7084H171.407V27.8221H167.54V29.2487C167.54 29.8985 167.562 30.0703 168.354 30.6753L172.221 33.5957L170.631 35.4928L166.764 32.5799C166.562 32.4305 166.375 32.2736 166.241 32.1243C166.084 32.2736 165.898 32.423 165.696 32.5799L161.829 35.4928L160.238 33.5957L164.098 30.6753ZM164.3 36.8073H177.036V43.9776H164.3V36.8073ZM174.356 41.9311V38.8389H167.01V41.9311H174.356ZM174.289 29.3159V24.7971H177.044V35.9857H174.289V31.4296H171.034V29.3159H174.289ZM93.3449 7.67068C92.6879 8.35783 91.9115 8.61925 91.038 8.61925C90.1421 8.61925 89.4104 8.29061 88.8355 7.70803C88.0143 6.86403 88.0367 5.82584 88.0367 4.38431C88.0367 2.94279 88.0143 1.9046 88.8355 1.0606C89.4104 0.478017 90.1197 0.14938 91.038 0.14938C92.9268 0.14938 93.8974 1.41164 94.1139 2.81582H92.5087C92.3295 2.03157 91.8592 1.59837 91.038 1.59837C90.6049 1.59837 90.2466 1.77763 90.0151 2.04651C89.7016 2.39756 89.6269 2.78594 89.6269 4.38431C89.6269 5.99015 89.709 6.38601 90.0151 6.73706C90.2466 7.00594 90.5975 7.17026 91.038 7.17026C91.5232 7.17026 91.9115 6.991 92.1728 6.69971C92.4415 6.39348 92.5386 6.02003 92.5386 5.58683V5.27313H91.038V3.91377H94.1213V5.13122C94.1213 6.33373 93.9198 7.06569 93.3449 7.67068ZM98.5112 5.13122V8.55203H96.9285V5.13122L94.4722 0.216602H96.2043L97.7273 3.57766L99.2279 0.216602H100.96L98.5112 5.13122ZM121.177 8.55203L117.945 3.43575V8.55203H116.347V0.216602H117.766L120.998 5.31794V0.216602H122.588V8.55203H121.177ZM129.3 7.67068C128.643 8.35783 127.867 8.61925 126.993 8.61925C126.097 8.61925 125.366 8.29061 124.791 7.70803C123.97 6.86403 123.992 5.82584 123.992 4.38431C123.992 2.94279 123.97 1.9046 124.791 1.0606C125.366 0.478017 126.075 0.14938 126.993 0.14938C128.882 0.14938 129.853 1.41164 130.069 2.81582H128.464C128.285 2.03157 127.814 1.59837 126.993 1.59837C126.56 1.59837 126.202 1.77763 125.97 2.04651C125.664 2.39756 125.582 2.78594 125.582 4.38431C125.582 5.99015 125.664 6.38601 125.97 6.73706C126.202 7.00594 126.553 7.17026 126.993 7.17026C127.479 7.17026 127.867 6.991 128.128 6.69971C128.389 6.39348 128.494 6.02003 128.494 5.58683V5.27313H126.993V3.91377H130.077V5.13122C130.077 6.33373 129.868 7.06569 129.3 7.67068ZM136.288 8.55203L133.055 3.43575V8.55203H131.458V0.216602H132.876L136.109 5.31794V0.216602H137.699V8.55203H136.288ZM144.023 8.55203L143.545 7.07316H140.641L140.148 8.55203H138.483L141.454 0.216602H142.701L145.68 8.55203H144.023ZM142.119 2.67391L141.089 5.70633H143.119L142.119 2.67391ZM152.258 8.55203V3.69716L150.697 6.85656H149.622L148.054 3.69716V8.55203H146.457V0.216602H148.032L150.167 4.72042L152.287 0.216602H153.863V8.55203H152.258ZM163.053 7.75284C162.515 8.30555 161.747 8.55203 160.895 8.55203H157.946V0.216602H160.895C161.747 0.216602 162.508 0.463079 163.053 1.00832C163.971 1.94195 163.882 3.09217 163.882 4.34697C163.882 5.60177 163.971 6.81922 163.053 7.75284ZM161.941 2.18095C161.664 1.84485 161.299 1.66559 160.746 1.66559H159.544V7.09557H160.746C161.299 7.09557 161.664 6.91631 161.941 6.58021C162.239 6.20676 162.284 5.60923 162.284 4.34697C162.284 3.08471 162.239 2.55441 161.941 2.18095ZM165.27 8.55203V0.216602H166.868V8.55203H165.27ZM173.572 7.67068C172.915 8.35783 172.139 8.61925 171.265 8.61925C170.37 8.61925 169.638 8.29061 169.063 7.70803C168.242 6.86403 168.264 5.82584 168.264 4.38431C168.264 2.94279 168.242 1.9046 169.063 1.0606C169.638 0.478017 170.347 0.14938 171.265 0.14938C173.154 0.14938 174.125 1.41164 174.341 2.81582H172.736C172.557 2.03157 172.079 1.59837 171.265 1.59837C170.832 1.59837 170.474 1.77763 170.243 2.04651C169.937 2.39756 169.854 2.78594 169.854 4.38431C169.854 5.99015 169.937 6.38601 170.243 6.73706C170.474 7.00594 170.825 7.17026 171.265 7.17026C171.751 7.17026 172.139 6.991 172.4 6.69971C172.662 6.39348 172.766 6.02003 172.766 5.58683V5.27313H171.265V3.91377H174.349V5.13122C174.349 6.33373 174.14 7.06569 173.572 7.67068ZM175.73 8.55203V0.216602H177.328V8.55203H175.73ZM182.113 1.66559V8.54456H180.523V1.66559H178.388V0.216602H184.248V1.66559H182.113ZM189.265 8.55203L188.788 7.07316H185.883L185.391 8.55203H183.726L186.697 0.216602H187.944L190.923 8.55203H189.265ZM187.362 2.67391L186.331 5.70633H188.362L187.362 2.67391ZM191.707 8.55203V0.216602H193.304V7.09557H197.007V8.54456H191.707V8.55203ZM88.3279 18.934V10.5985H89.9554V18.934H88.3279ZM96.585 18.934L93.2852 13.8177V18.934H91.6576V10.5985H93.106L96.4059 15.6999V10.5985H98.0334V18.934H96.585ZM104.663 18.934L101.363 13.8177V18.934H99.7356V10.5985H101.184L104.484 15.6999V10.5985H106.111V18.934H104.663ZM112.86 18.09C112.278 18.6726 111.561 19.0012 110.613 19.0012C109.665 19.0012 108.941 18.6726 108.359 18.09C107.515 17.246 107.537 16.2078 107.537 14.7663C107.537 13.3247 107.515 12.2865 108.359 11.4425C108.941 10.86 109.665 10.5313 110.613 10.5313C111.561 10.5313 112.278 10.86 112.86 11.4425C113.704 12.2865 113.689 13.3247 113.689 14.7663C113.689 16.2078 113.704 17.246 112.86 18.09ZM111.658 12.4284C111.427 12.1596 111.061 11.9803 110.613 11.9803C110.165 11.9803 109.792 12.1596 109.561 12.4284C109.247 12.7795 109.165 13.1679 109.165 14.7663C109.165 16.3721 109.247 16.753 109.561 17.1041C109.792 17.3729 110.165 17.5522 110.613 17.5522C111.061 17.5522 111.42 17.3729 111.658 17.1041C111.972 16.753 112.069 16.3646 112.069 14.7663C112.069 13.1604 111.972 12.7795 111.658 12.4284ZM114.309 7.77525C113.727 8.35783 113.01 8.68647 112.062 8.68647C111.113 8.68647 110.389 8.35783 109.807 7.77525C108.963 6.93125 108.986 5.89306 108.986 4.45154C108.986 3.01002 108.963 1.97182 109.807 1.12782C110.389 0.545239 111.113 0.216602 112.062 0.216602C113.01 0.216602 113.727 0.545239 114.309 1.12782C115.152 1.97182 115.138 3.01002 115.138 4.45154C115.145 5.89306 115.152 6.93125 114.309 7.77525ZM113.107 2.11373C112.875 1.84485 112.51 1.66559 112.062 1.66559C111.614 1.66559 111.24 1.84485 111.009 2.11373C110.695 2.46478 110.613 2.85317 110.613 4.45154C110.613 6.05738 110.695 6.4383 111.009 6.78934C111.24 7.05822 111.614 7.23748 112.062 7.23748C112.51 7.23748 112.868 7.05822 113.107 6.78934C113.42 6.4383 113.517 6.04991 113.517 4.45154C113.517 2.8457 113.42 2.46478 113.107 2.11373ZM118.027 18.934H116.81L114.062 10.5985H115.742L117.415 16.0285L119.087 10.5985H120.782L118.027 18.934ZM125.888 18.934L125.396 17.4626H122.439L121.939 18.934H120.244L123.275 10.5985H124.552L127.59 18.934H125.888ZM123.94 13.0558L122.887 16.0883H124.955L123.94 13.0558ZM130.853 12.0475V18.9265H129.226V12.0475H127.045V10.5985H133.026V12.0475H130.853ZM134.116 18.934V10.5985H135.743V18.934H134.116ZM142.485 18.09C141.902 18.6726 141.186 19.0012 140.238 19.0012C139.289 19.0012 138.565 18.6726 137.983 18.09C137.139 17.246 137.162 16.2078 137.162 14.7663C137.162 13.3247 137.139 12.2865 137.983 11.4425C138.565 10.86 139.289 10.5313 140.238 10.5313C141.186 10.5313 141.895 10.86 142.485 11.4425C143.328 12.2865 143.313 13.3247 143.313 14.7663C143.321 16.2078 143.328 17.246 142.485 18.09ZM141.283 12.4284C141.051 12.1596 140.686 11.9803 140.238 11.9803C139.79 11.9803 139.416 12.1596 139.185 12.4284C138.871 12.7795 138.789 13.1679 138.789 14.7663C138.789 16.3721 138.871 16.753 139.185 17.1041C139.416 17.3729 139.79 17.5522 140.238 17.5522C140.686 17.5522 141.044 17.3729 141.283 17.1041C141.596 16.753 141.693 16.3646 141.693 14.7663C141.693 13.1604 141.596 12.7795 141.283 12.4284ZM149.667 18.934L146.367 13.8177V18.934H144.739V10.5985H146.188L149.488 15.6999V10.5985H151.115V18.934H149.667ZM159.746 18.934V15.4459H156.924V18.934H155.296V10.5985H156.924V14.0044H159.746V10.5985H161.373V18.934H159.746ZM166.009 19.0012C164.3 19.0012 162.941 17.8435 162.941 16.0733V10.5985H164.569V16.0136C164.569 16.9696 165.129 17.5447 166.009 17.5447C166.883 17.5447 167.458 16.9696 167.458 16.0136V10.5985H169.07V16.0733C169.078 17.8435 167.719 19.0012 166.009 19.0012ZM174.14 18.934H170.653V10.5985H173.998C175.625 10.5985 176.574 11.5098 176.574 12.9363C176.574 13.8625 175.961 14.46 175.543 14.6542C176.044 14.8932 176.686 15.4161 176.686 16.5289C176.686 18.09 175.618 18.934 174.14 18.934ZM173.864 12.0475H172.273V13.9671H173.864C174.55 13.9671 174.939 13.5787 174.939 13.0036C174.946 12.4359 174.558 12.0475 173.864 12.0475ZM173.976 15.431H172.281V17.4775H173.976C174.715 17.4775 175.066 17.007 175.066 16.4468C175.058 15.8866 174.707 15.431 173.976 15.431Z" fill="url(#paint0_linear_725_1171)"/>
<g id="Group_2">
<path id="Vector_2" d="M12.662 13.5563L8.86938 15.7522V18.2095C9.36213 18.3514 9.72795 18.7995 9.72795 19.3373C9.72795 19.8751 9.36213 20.3307 8.86938 20.4651V33.4239L18.8288 39.1003C19.0453 38.8613 19.3514 38.7119 19.6948 38.7119C20.3443 38.7119 20.8744 39.2422 20.8744 39.892C20.8744 40.0115 20.852 40.1236 20.8147 40.2356L22.8379 41.3933L26.6156 39.1825L12.6545 31.2205V13.5563H12.662Z" fill="url(#paint1_linear_725_1171)"/>
<path id="Vector_3" d="M19.6948 41.0796C19.0453 41.0796 18.5152 40.5493 18.5152 39.8995C18.5152 39.8398 18.5226 39.78 18.5376 39.7203L8.20492 33.7973L8.21238 20.4577C7.72711 20.3083 7.36875 19.8676 7.36875 19.3298C7.36875 18.7921 7.72711 18.3439 8.21238 18.202V16.1182L4.41976 18.3141L4.41229 31.2803C4.9125 31.4147 5.28579 31.8703 5.28579 32.4156C5.28579 32.9608 4.9125 33.4164 4.41229 33.5509V35.9858L18.3883 44.0075L22.1585 41.8041L20.4339 40.8182C20.2323 40.9751 19.9785 41.0796 19.6948 41.0796Z" fill="url(#paint2_linear_725_1171)"/>
<path id="Vector_4" d="M23.9801 17.3506L23.9652 25.9773L14.3717 31.5044L18.1941 33.6853L21.4268 31.8181C21.3746 31.6911 21.3447 31.5417 21.3447 31.3923C21.3447 30.7425 21.8748 30.2122 22.5243 30.2122C22.8976 30.2122 23.2261 30.384 23.4426 30.6529L27.7504 28.1657L27.7802 15.1547L26.078 14.1688C25.869 14.3555 25.6002 14.475 25.2941 14.475C24.6446 14.475 24.1145 13.9447 24.1145 13.2949C24.1145 13.2127 24.122 13.1306 24.1369 13.0484L14.4986 7.37195L4.06886 13.3994C4.09126 13.4965 4.10619 13.5862 4.10619 13.6907C4.10619 14.3405 3.57612 14.8708 2.92659 14.8708C2.60556 14.8708 2.3144 14.7439 2.09789 14.5347L0 15.7373V33.4164L3.77023 35.6048V33.5359C3.28495 33.394 2.92659 32.9459 2.92659 32.4081C2.92659 31.8703 3.28495 31.4222 3.77023 31.2803L3.78516 17.9257L14.4986 11.7637L23.9801 17.3506Z" fill="url(#paint3_linear_725_1171)"/>
<path id="Vector_5" d="M1.747 13.6907C1.747 13.0409 2.27707 12.5106 2.92659 12.5106C3.23269 12.5106 3.51639 12.6301 3.72543 12.8243L14.4986 6.6101L24.4505 12.4733C24.667 12.2567 24.9582 12.1148 25.2941 12.1148C25.9436 12.1148 26.4737 12.6451 26.4737 13.2949C26.4737 13.4069 26.4513 13.5115 26.4215 13.616L27.7802 14.4003V10.016L18.769 4.7055C18.56 4.91463 18.2688 5.04161 17.9478 5.04161C17.2983 5.04161 16.7682 4.5113 16.7682 3.8615C16.7682 3.75693 16.7831 3.65984 16.8055 3.57021L14.506 2.24072L0 10.5911V14.9754L1.77686 13.9521C1.76193 13.8625 1.747 13.7804 1.747 13.6907Z" fill="url(#paint4_linear_725_1171)"/>
<path id="Vector_6" d="M32.0955 12.7795V12.7571C31.6401 12.5928 31.3116 12.1596 31.3116 11.6517C31.3116 11.1438 31.6401 10.7106 32.0955 10.5463V10.5238V8.02173L18.2838 0L15.1033 1.83738L17.1191 3.01002C17.3281 2.80835 17.6193 2.68138 17.9329 2.68138C18.5824 2.68138 19.1125 3.21168 19.1125 3.86148C19.1125 3.95858 19.0975 4.05568 19.0751 4.14531L28.4074 9.67238L28.3999 28.5018L23.6815 31.2653C23.689 31.3101 23.6965 31.3549 23.6965 31.3998C23.6965 32.0496 23.1664 32.5799 22.5169 32.5799C22.2556 32.5799 22.0241 32.4902 21.83 32.3483L18.8362 34.0438L22.7334 36.2845L25.9138 34.4247C25.869 34.2977 25.8392 34.1633 25.8392 34.0214C25.8392 33.3716 26.3692 32.8413 27.0187 32.8413C27.3771 32.8413 27.6907 33.0056 27.9146 33.2595L32.1179 30.8022L32.0955 12.7795Z" fill="url(#paint5_linear_725_1171)"/>
<path id="Vector_7" d="M32.7375 8.40265L32.745 10.5014C32.745 10.5014 32.745 10.5014 32.7525 10.5014V10.5239C33.2378 10.6732 33.5886 11.1139 33.5886 11.6442C33.5886 12.1745 33.2303 12.6226 32.7525 12.772V12.7944C32.7525 12.7944 32.7525 12.7944 32.745 12.7944L32.7674 31.228L28.1909 33.9019C28.1909 33.9392 28.1983 33.9766 28.1983 34.0065C28.1983 34.6563 27.6683 35.1866 27.0187 35.1866C26.7649 35.1866 26.5409 35.1044 26.3468 34.9774L23.4426 36.6804L27.2203 38.8613L36.56 33.394V10.5911L32.7375 8.40265Z" fill="url(#paint6_linear_725_1171)"/>
</g>
</g>
</g>
<defs>
<linearGradient id="paint0_linear_725_1171" x1="43.4322" y1="22.0014" x2="197.002" y2="22.0014" gradientUnits="userSpaceOnUse">
<stop stop-color="#F0D037"/>
<stop offset="0.4665" stop-color="#E89912"/>
<stop offset="0.9844" stop-color="#DC570F"/>
</linearGradient>
<linearGradient id="paint1_linear_725_1171" x1="8.86931" y1="27.4741" x2="26.621" y2="27.4741" gradientUnits="userSpaceOnUse">
<stop stop-color="#F0D037"/>
<stop offset="0.4665" stop-color="#E89912"/>
<stop offset="0.9844" stop-color="#DC570F"/>
</linearGradient>
<linearGradient id="paint2_linear_725_1171" x1="4.40953" y1="30.0621" x2="22.159" y2="30.0621" gradientUnits="userSpaceOnUse">
<stop stop-color="#F0D037"/>
<stop offset="0.4665" stop-color="#E89912"/>
<stop offset="0.9844" stop-color="#DC570F"/>
</linearGradient>
<linearGradient id="paint3_linear_725_1171" x1="0" y1="21.4968" x2="27.7795" y2="21.4968" gradientUnits="userSpaceOnUse">
<stop stop-color="#F0D037"/>
<stop offset="0.4665" stop-color="#E89912"/>
<stop offset="0.9844" stop-color="#DC570F"/>
</linearGradient>
<linearGradient id="paint4_linear_725_1171" x1="0" y1="8.60179" x2="27.7795" y2="8.60179" gradientUnits="userSpaceOnUse">
<stop stop-color="#F0D037"/>
<stop offset="0.4665" stop-color="#E89912"/>
<stop offset="0.9844" stop-color="#DC570F"/>
</linearGradient>
<linearGradient id="paint5_linear_725_1171" x1="15.1095" y1="18.139" x2="32.1183" y2="18.139" gradientUnits="userSpaceOnUse">
<stop stop-color="#F0D037"/>
<stop offset="0.4665" stop-color="#E89912"/>
<stop offset="0.9844" stop-color="#DC570F"/>
</linearGradient>
<linearGradient id="paint6_linear_725_1171" x1="23.4437" y1="23.6346" x2="36.5642" y2="23.6346" gradientUnits="userSpaceOnUse">
<stop stop-color="#F0D037"/>
<stop offset="0.4665" stop-color="#E89912"/>
<stop offset="0.9844" stop-color="#DC570F"/>
</linearGradient>
<clipPath id="clip0_725_1171">
<rect width="197" height="44" fill="white"/>
</clipPath>
</defs>
</svg>
