<svg width="51" height="50" viewBox="0 0 51 50" fill="none" xmlns="http://www.w3.org/2000/svg">
<g clip-path="url(#clip0_2565_42742)">
<path d="M21.0767 34.841C20.2467 32.4914 18.28 30.6784 15.8333 30.0619V22.1699H12.1667V30.0619C8.91 30.8784 6.5 33.8245 6.5 37.3339C6.5 39.8901 7.78 42.1464 9.73333 43.4995" stroke="#E60024" stroke-width="2" stroke-linecap="round" stroke-linejoin="round"/>
<path d="M21.59 24.0508L26.89 27.1102" stroke="#1D1D1D" stroke-width="2" stroke-linecap="round" stroke-linejoin="round"/>
<path d="M42.5433 40.834H18.4567C17.9283 40.834 17.5 41.2622 17.5 41.7905V42.5437C17.5 43.0719 17.9283 43.5002 18.4567 43.5002H42.5433C43.0717 43.5002 43.5 43.0719 43.5 42.5437V41.7905C43.5 41.2622 43.0717 40.834 42.5433 40.834Z" stroke="#1D1D1D" stroke-width="2" stroke-linecap="round" stroke-linejoin="round"/>
<path d="M35.2733 10.4793L36.45 8.43966L33.09 6.5L31.9133 8.53964L32.4 8.81959L30.81 11.5791L29.98 11.0992L22.3133 24.2436L21.3533 23.6903L19.7833 26.4098L25.7433 29.8492L27.3133 27.1297L26.3533 26.5765L34.02 13.4321L33.19 12.9522L34.7833 10.196L35.2733 10.4793Z" stroke="#1D1D1D" stroke-width="2" stroke-linecap="round" stroke-linejoin="round"/>
<path d="M45.5 43.5H5.5" stroke="#1D1D1D" stroke-width="2" stroke-linecap="round" stroke-linejoin="round"/>
<path d="M30.0233 11.3398L33.6233 13.4161" stroke="#1D1D1D" stroke-width="2" stroke-linecap="round" stroke-linejoin="round"/>
<path d="M20.7866 40.5302C21.0766 39.9136 21.2866 39.2538 21.4 38.5605" stroke="#1D1D1D" stroke-width="2" stroke-linecap="round" stroke-linejoin="round"/>
<path d="M13.3334 18.0039V20.6701" stroke="#E60024" stroke-width="2" stroke-linecap="round" stroke-linejoin="round"/>
<path d="M15 15.6719V19.0046" stroke="#E60024" stroke-width="2" stroke-linecap="round" stroke-linejoin="round"/>
<path d="M40.0633 37.1449C42.7466 35.2019 44.5 32.0491 44.5 28.503V26.8367C44.5 20.971 39.7 16.1719 33.8333 16.1719H32.72" stroke="#1D1D1D" stroke-width="2" stroke-linecap="round" stroke-linejoin="round"/>
<path d="M30.5 20.1699H33.8333C37.51 20.1699 40.5 23.1594 40.5 26.8354V28.5018C40.5 31.0214 39.0967 33.2176 37.0267 34.3508" stroke="#1D1D1D" stroke-width="2" stroke-linecap="round" stroke-linejoin="round"/>
<path d="M29.3333 35.334H17V38.3335H27" stroke="#1D1D1D" stroke-width="2" stroke-linecap="round" stroke-linejoin="round"/>
<path d="M33.8333 33.8359H33.5C29.6333 33.8359 26.5 36.9687 26.5 40.8347H40.8333C40.8333 36.9687 37.7 33.8359 33.8333 33.8359Z" stroke="#1D1D1D" stroke-width="2" stroke-linecap="round" stroke-linejoin="round"/>
</g>
<defs>
<clipPath id="clip0_2565_42742">
<rect width="43" height="40" fill="white" transform="translate(4 5)"/>
</clipPath>
</defs>
</svg>
