<svg width="51" height="50" viewBox="0 0 51 50" fill="none" xmlns="http://www.w3.org/2000/svg">
<g clip-path="url(#clip0_2565_42722)">
<path d="M41.3607 7.10938H22.0386V43.8924H41.3607V7.10938Z" stroke="#E60024" stroke-width="2" stroke-linecap="round" stroke-linejoin="round"/>
<path d="M33.4379 14.5078H10.6393V43.8861H33.4379V14.5078Z" fill="white" stroke="#1D1D1D" stroke-width="2" stroke-linecap="round" stroke-linejoin="round"/>
<path d="M17.0674 17.6309H15.1157C14.5634 17.6309 14.1157 18.0786 14.1157 18.6309V21.6413C14.1157 22.1935 14.5634 22.6413 15.1157 22.6413H17.0674C17.6197 22.6413 18.0674 22.1935 18.0674 21.6413V18.6309C18.0674 18.0786 17.6197 17.6309 17.0674 17.6309Z" fill="#E60024"/>
<path d="M23.0176 17.6309H21.066C20.5137 17.6309 20.066 18.0786 20.066 18.6309V21.6413C20.066 22.1935 20.5137 22.6413 21.066 22.6413H23.0176C23.5699 22.6413 24.0176 22.1935 24.0176 21.6413V18.6309C24.0176 18.0786 23.5699 17.6309 23.0176 17.6309Z" fill="#E60024"/>
<path d="M28.9614 17.6309H27.0098C26.4575 17.6309 26.0098 18.0786 26.0098 18.6309V21.6413C26.0098 22.1935 26.4575 22.6413 27.0098 22.6413H28.9614C29.5137 22.6413 29.9614 22.1935 29.9614 21.6413V18.6309C29.9614 18.0786 29.5137 17.6309 28.9614 17.6309Z" fill="#E60024"/>
<path d="M17.0674 25.2578H15.1157C14.5634 25.2578 14.1157 25.7055 14.1157 26.2578V29.2682C14.1157 29.8205 14.5634 30.2682 15.1157 30.2682H17.0674C17.6197 30.2682 18.0674 29.8205 18.0674 29.2682V26.2578C18.0674 25.7055 17.6197 25.2578 17.0674 25.2578Z" fill="#E60024"/>
<path d="M23.0176 25.2578H21.066C20.5137 25.2578 20.066 25.7055 20.066 26.2578V29.2682C20.066 29.8205 20.5137 30.2682 21.066 30.2682H23.0176C23.5699 30.2682 24.0176 29.8205 24.0176 29.2682V26.2578C24.0176 25.7055 23.5699 25.2578 23.0176 25.2578Z" fill="#E60024"/>
<path d="M28.9614 25.2578H27.0098C26.4575 25.2578 26.0098 25.7055 26.0098 26.2578V29.2682C26.0098 29.8205 26.4575 30.2682 27.0098 30.2682H28.9614C29.5137 30.2682 29.9614 29.8205 29.9614 29.2682V26.2578C29.9614 25.7055 29.5137 25.2578 28.9614 25.2578Z" fill="#E60024"/>
<path d="M17.0674 32.877H15.1157C14.5634 32.877 14.1157 33.3247 14.1157 33.877V36.8873C14.1157 37.4396 14.5634 37.8873 15.1157 37.8873H17.0674C17.6197 37.8873 18.0674 37.4396 18.0674 36.8873V33.877C18.0674 33.3247 17.6197 32.877 17.0674 32.877Z" fill="#E60024"/>
<path d="M23.0176 32.877H21.066C20.5137 32.877 20.066 33.3247 20.066 33.877V36.8873C20.066 37.4396 20.5137 37.8873 21.066 37.8873H23.0176C23.5699 37.8873 24.0176 37.4396 24.0176 36.8873V33.877C24.0176 33.3247 23.5699 32.877 23.0176 32.877Z" fill="#E60024"/>
<path d="M28.9614 32.877H27.0098C26.4575 32.877 26.0098 33.3247 26.0098 33.877V36.8873C26.0098 37.4396 26.4575 37.8873 27.0098 37.8873H28.9614C29.5137 37.8873 29.9614 37.4396 29.9614 36.8873V33.877C29.9614 33.3247 29.5137 32.877 28.9614 32.877Z" fill="#E60024"/>
</g>
<defs>
<clipPath id="clip0_2565_42722">
<rect width="33" height="39" fill="white" transform="translate(9.5 6)"/>
</clipPath>
</defs>
</svg>
