<svg width="20" height="20" viewBox="0 0 20 20" fill="none" xmlns="http://www.w3.org/2000/svg">
<g id="icon">
<path id="ic" d="M4.72227 18.332C4.34033 18.332 4.01331 18.1961 3.74123 17.9241C3.46929 17.652 3.33331 17.325 3.33331 16.9431V8.13766C3.33331 7.75571 3.46929 7.4287 3.74123 7.15662C4.01331 6.88467 4.34033 6.7487 4.72227 6.7487H5.97227V4.85974C5.97227 3.74543 6.36512 2.79557 7.15081 2.01016C7.93651 1.22474 8.88672 0.832031 10.0014 0.832031C11.1162 0.832031 12.0659 1.22474 12.8506 2.01016C13.6353 2.79557 14.0277 3.74543 14.0277 4.85974V6.7487H15.2777C15.6596 6.7487 15.9866 6.88467 16.2587 7.15662C16.5307 7.4287 16.6666 7.75571 16.6666 8.13766V16.9431C16.6666 17.325 16.5307 17.652 16.2587 17.9241C15.9866 18.1961 15.6596 18.332 15.2777 18.332H4.72227ZM4.72227 16.9431H15.2777V8.13766H4.72227V16.9431ZM10.0023 14.1654C10.4498 14.1654 10.8321 14.009 11.1494 13.6962C11.4664 13.3834 11.625 13.0074 11.625 12.5681C11.625 12.1375 11.4656 11.7545 11.1469 11.4189C10.8282 11.0832 10.4452 10.9154 9.99769 10.9154C9.55019 10.9154 9.16783 11.0832 8.8506 11.4189C8.53352 11.7545 8.37498 12.1399 8.37498 12.5752C8.37498 13.0103 8.53435 13.3841 8.8531 13.6966C9.17172 14.0091 9.55477 14.1654 10.0023 14.1654ZM7.36102 6.7487H12.6389V4.85974C12.6389 4.12682 12.3825 3.50377 11.8698 2.99057C11.3569 2.47752 10.7341 2.22099 10.0016 2.22099C9.26901 2.22099 8.64574 2.47752 8.13185 2.99057C7.61797 3.50377 7.36102 4.12682 7.36102 4.85974V6.7487Z" fill="#4A4A4A"/>
</g>
</svg>
