<svg width="50" height="50" viewBox="0 0 50 50" fill="none" xmlns="http://www.w3.org/2000/svg">
<path d="M12.2796 19.5612V20.5612H13.2796H15.0784H16.0784V19.5612V15.4858H18.6515H19.2757H19.6515H20.2757H22.8488V19.5612V20.5612H23.8488H25.6475H26.6475V19.5612V10.4161L35.9272 7.07765V34.5623H2.99994V15.4858H12.2796V19.5612ZM26.5176 10.4628L26.518 10.4627L26.5176 10.4628Z" stroke="#1D1D1D" stroke-width="2"/>
<path d="M46.5523 29.6044L44.6838 29.3087C44.4867 28.6557 44.2238 28.0274 43.9035 27.4237L45.0164 25.896C45.2793 25.5346 45.2423 25.0336 44.9261 24.7133L42.3142 22.1055C41.998 21.7852 41.4929 21.7442 41.1315 22.0111L39.6038 23.124C39.0001 22.8037 38.3718 22.5409 37.7188 22.3437L37.4231 20.4752C37.3533 20.0317 36.9714 19.7031 36.5197 19.7031H32.8318C32.3801 19.7031 31.9982 20.0317 31.9284 20.4752L31.6368 22.3437C30.9797 22.5409 30.3514 22.8037 29.7477 23.124L28.22 22.0111C27.8586 21.7442 27.3576 21.7852 27.0373 22.1055L24.4295 24.7133C24.1092 25.0336 24.0722 25.5346 24.3351 25.896L25.448 27.4237C25.1277 28.0274 24.8648 28.6557 24.6677 29.3087L22.7992 29.6044C22.3556 29.6742 22.0271 30.0561 22.0271 30.5079V34.1957C22.0271 34.6474 22.3556 35.0293 22.7992 35.0992L24.6677 35.3948C24.8648 36.0478 25.1277 36.6761 25.448 37.2798L24.3351 38.8075C24.0722 39.173 24.1092 39.674 24.4295 39.9902L27.0373 42.598C27.3576 42.9183 27.8586 42.9594 28.22 42.6925L29.7477 41.5795C30.3473 41.8999 30.9797 42.1627 31.6327 42.3598L31.9284 44.2284C31.9982 44.6719 32.3801 45.0004 32.8318 45.0004H36.5197C36.9714 45.0004 37.3533 44.6719 37.4231 44.2284L37.7188 42.3598C38.3718 42.1627 39.0042 41.8999 39.6038 41.5795L41.1315 42.6925C41.4929 42.9594 41.998 42.9183 42.3142 42.598L44.922 39.9902C45.2423 39.674 45.2793 39.173 45.0164 38.8075L43.9035 37.2798C44.2238 36.6761 44.4867 36.0478 44.6838 35.3948L46.5523 35.0992C46.9959 35.0293 47.3244 34.6474 47.3244 34.1957V30.5079C47.3244 30.0561 46.9959 29.6742 46.5523 29.6044ZM39.3779 32.3518C39.3779 34.9431 37.2671 37.054 34.6757 37.054C32.0844 37.054 29.9736 34.9431 29.9736 32.3518C29.9736 29.7604 32.0844 27.6496 34.6757 27.6496C37.2671 27.6496 39.3779 29.7604 39.3779 32.3518Z" fill="#E60024"/>
<circle cx="34.6757" cy="32.3517" r="6.32432" fill="white"/>
</svg>
