<svg width="80" height="80" viewBox="0 0 80 80" fill="none" xmlns="http://www.w3.org/2000/svg">
<path d="M44.0457 16.9316H22.1172V57.7088H44.0457V16.9316Z" fill="#E60024" stroke="white" stroke-width="2" stroke-linejoin="round"/>
<path d="M26.989 21.6133V24.3686" stroke="white" stroke-width="2" stroke-linejoin="round"/>
<path d="M26.989 27.4004V30.1557" stroke="white" stroke-width="2" stroke-linejoin="round"/>
<path d="M26.989 33.1875V35.9428" stroke="white" stroke-width="2" stroke-linejoin="round"/>
<path d="M26.989 38.9727V41.7279" stroke="white" stroke-width="2" stroke-linejoin="round"/>
<path d="M26.989 44.7598V47.5151" stroke="white" stroke-width="2" stroke-linejoin="round"/>
<path d="M33.0798 21.6133V24.3686" stroke="white" stroke-width="2" stroke-linejoin="round"/>
<path d="M33.0798 27.4004V30.1557" stroke="white" stroke-width="2" stroke-linejoin="round"/>
<path d="M33.0798 33.1875V35.9428" stroke="white" stroke-width="2" stroke-linejoin="round"/>
<path d="M33.0798 38.9727V41.7279" stroke="white" stroke-width="2" stroke-linejoin="round"/>
<path d="M33.0798 44.7598V47.5151" stroke="white" stroke-width="2" stroke-linejoin="round"/>
<path d="M39.1685 21.6133V24.3686" stroke="white" stroke-width="2" stroke-linejoin="round"/>
<path d="M39.1685 27.4004V30.1557" stroke="white" stroke-width="2" stroke-linejoin="round"/>
<path d="M39.1685 33.1875V35.9428" stroke="white" stroke-width="2" stroke-linejoin="round"/>
<path d="M39.1685 38.9727V41.7279" stroke="white" stroke-width="2" stroke-linejoin="round"/>
<path d="M39.1685 44.7598V47.5151" stroke="white" stroke-width="2" stroke-linejoin="round"/>
<path d="M57.8849 26.5723H37.4069V57.7088H57.8849V26.5723Z" fill="#E60024" stroke="white" stroke-width="2" stroke-linejoin="round"/>
<path d="M41.9575 30.9512V33.5262" stroke="white" stroke-width="2" stroke-linejoin="round"/>
<path d="M41.9575 36.3555V38.9248" stroke="white" stroke-width="2" stroke-linejoin="round"/>
<path d="M41.9575 41.7578V44.3272" stroke="white" stroke-width="2" stroke-linejoin="round"/>
<path d="M41.9575 47.1621V49.7371" stroke="white" stroke-width="2" stroke-linejoin="round"/>
<path d="M47.6495 30.9512V33.5262" stroke="white" stroke-width="2" stroke-linejoin="round"/>
<path d="M47.6495 36.3555V38.9248" stroke="white" stroke-width="2" stroke-linejoin="round"/>
<path d="M47.6495 41.7578V44.3272" stroke="white" stroke-width="2" stroke-linejoin="round"/>
<path d="M47.6495 47.1621V49.7371" stroke="white" stroke-width="2" stroke-linejoin="round"/>
<path d="M53.3348 30.9512V33.5262" stroke="white" stroke-width="2" stroke-linejoin="round"/>
<path d="M53.3348 36.3555V38.9248" stroke="white" stroke-width="2" stroke-linejoin="round"/>
<path d="M53.3348 41.7578V44.3272" stroke="white" stroke-width="2" stroke-linejoin="round"/>
<path d="M53.3348 47.1621V49.7371" stroke="white" stroke-width="2" stroke-linejoin="round"/>
<path d="M63.8087 54.3672H16.1927V68.9325H63.8087V54.3672Z" fill="#E60024" stroke="white" stroke-width="2"/>
<path d="M26.0092 60.5645V62.7338" stroke="white" stroke-width="2"/>
<path d="M30.676 60.5645V62.7338" stroke="white" stroke-width="2"/>
<path d="M35.3379 60.5645V62.7338" stroke="white" stroke-width="2"/>
<path d="M39.9978 60.5645V62.7338" stroke="white" stroke-width="2"/>
<path d="M44.6667 60.5645V62.7338" stroke="white" stroke-width="2"/>
<path d="M49.3265 60.5645V62.7338" stroke="white" stroke-width="2"/>
<path d="M53.9932 60.5645V62.7338" stroke="white" stroke-width="2"/>
<path d="M48.0756 13.3242C51.0374 13.3242 53.44 15.7696 53.44 18.7841" stroke="#E60024" stroke-width="2"/>
<path d="M56.6399 18.785C56.6399 13.9731 52.8034 10.0684 48.0756 10.0684" stroke="white" stroke-width="2" stroke-linecap="round"/>
<path d="M48.0756 16.582C49.2714 16.582 50.2402 17.5681 50.2402 18.7851" stroke="white" stroke-width="2" stroke-linecap="round"/>
<path d="M53.44 18.7841C53.44 15.7696 51.0374 13.3242 48.0756 13.3242" stroke="white" stroke-width="2" stroke-linecap="round"/>
</svg>
