<svg width="51" height="50" viewBox="0 0 51 50" fill="none" xmlns="http://www.w3.org/2000/svg">
<g clip-path="url(#clip0_2565_43339)">
<path d="M25.1668 36.6495C31.7738 36.6495 37.1298 31.1748 37.1298 24.4214C37.1298 17.6681 31.7738 12.1934 25.1668 12.1934C18.5599 12.1934 13.2039 17.6681 13.2039 24.4214C13.2039 31.1748 18.5599 36.6495 25.1668 36.6495Z" stroke="#1D1D1D" stroke-width="2" stroke-linecap="round" stroke-linejoin="round"/>
<path d="M26.5741 47.123H23.7593C22.5912 47.123 21.6482 45.783 21.6482 44.123H28.6852C28.6852 45.783 27.7423 47.123 26.5741 47.123Z" stroke="#1D1D1D" stroke-width="2" stroke-linecap="round" stroke-linejoin="round"/>
<path d="M28.6852 38.8066H21.6482V41.8066H28.6852V38.8066Z" stroke="#1D1D1D" stroke-width="2" stroke-linecap="round" stroke-linejoin="round"/>
<path d="M25.1667 9.31524V5.71875" stroke="#1D1D1D" stroke-width="2" stroke-linecap="round" stroke-linejoin="round"/>
<path d="M25.1667 9.31524V5.71875" stroke="#1D1D1D" stroke-width="2" stroke-linecap="round" stroke-linejoin="round"/>
<path d="M10.3889 24.4219H6.87036" stroke="#1D1D1D" stroke-width="2" stroke-linecap="round" stroke-linejoin="round"/>
<path d="M10.3889 24.4219H6.87036" stroke="#1D1D1D" stroke-width="2" stroke-linecap="round" stroke-linejoin="round"/>
<path d="M43.4631 24.4219H39.9446" stroke="#1D1D1D" stroke-width="2" stroke-linecap="round" stroke-linejoin="round"/>
<path d="M14.7167 35.1035L12.2327 37.6426" stroke="#1D1D1D" stroke-width="2" stroke-linecap="round" stroke-linejoin="round"/>
<path d="M14.7167 35.1035L12.2327 37.6426" stroke="#1D1D1D" stroke-width="2" stroke-linecap="round" stroke-linejoin="round"/>
<path d="M38.1008 11.2012L35.6167 13.7403" stroke="#1D1D1D" stroke-width="2" stroke-linecap="round" stroke-linejoin="round"/>
<path d="M35.6167 35.1035L38.1008 37.6426" stroke="#1D1D1D" stroke-width="2" stroke-linecap="round" stroke-linejoin="round"/>
<path d="M35.6167 35.1035L38.1008 37.6426" stroke="#1D1D1D" stroke-width="2" stroke-linecap="round" stroke-linejoin="round"/>
<path d="M12.2327 11.2012L14.7167 13.7403" stroke="#1D1D1D" stroke-width="2" stroke-linecap="round" stroke-linejoin="round"/>
<path d="M26.1169 17.9471L27.848 16.6523C29.0654 17.3716 29.1921 17.4436 30.4024 18.1629L30.1702 20.3423C30.5221 20.9681 30.7683 21.4069 31.1202 22.0327L33.0835 22.9174V25.9313L31.1202 26.816C30.7683 27.4418 30.5221 27.8806 30.1702 28.5064L30.4024 30.6859C29.185 31.4051 29.0583 31.4771 27.848 32.1964L26.1169 30.9016H24.2098L22.4787 32.1964C21.2613 31.4771 21.1346 31.4051 19.9243 30.6859L20.1565 28.5064C19.8046 27.8806 19.5583 27.4418 19.2065 26.816L17.2432 25.9313V22.9174L19.2065 22.0327C19.5583 21.4069 19.8046 20.9681 20.1565 20.3423L19.9243 18.1629C21.1417 17.4436 21.2683 17.3716 22.4787 16.6523L24.2098 17.9471H26.1169Z" stroke="#E60024" stroke-width="2" stroke-linecap="round" stroke-linejoin="round"/>
<path d="M25.1667 28.0172C27.1099 28.0172 28.6852 26.407 28.6852 24.4207C28.6852 22.4344 27.1099 20.8242 25.1667 20.8242C23.2235 20.8242 21.6482 22.4344 21.6482 24.4207C21.6482 26.407 23.2235 28.0172 25.1667 28.0172Z" stroke="#E60024" stroke-width="2" stroke-linecap="round" stroke-linejoin="round"/>
</g>
<defs>
<clipPath id="clip0_2565_43339">
<rect width="40" height="44" fill="white" transform="translate(5.16675 4)"/>
</clipPath>
</defs>
</svg>
