<svg width="51" height="50" viewBox="0 0 51 50" fill="none" xmlns="http://www.w3.org/2000/svg">
<path d="M27.0367 23.9736C28.9946 21.9732 28.9946 18.7299 27.0367 16.7295C25.0788 14.7292 21.9044 14.7292 19.9465 16.7295C17.9886 18.7299 17.9886 21.9732 19.9465 23.9736C21.9044 25.974 25.0788 25.974 27.0367 23.9736Z" stroke="#E60024" stroke-width="2" stroke-linecap="round" stroke-linejoin="round"/>
<path d="M31.4801 33.9994C31.4801 29.4929 27.905 25.8359 23.4901 25.8359C19.0752 25.8359 15.5 29.4887 15.5 33.9994" stroke="#E60024" stroke-width="2" stroke-linecap="round" stroke-linejoin="round"/>
<path d="M42.5 35.8345L36.9517 37L35.5 32" stroke="#1D1D1D" stroke-width="2" stroke-linecap="round" stroke-linejoin="round"/>
<path d="M23.3471 43.4629C13.2275 43.4629 5.02539 35.1976 5.02539 25C5.02539 14.8024 13.2275 6.53711 23.3471 6.53711C33.4668 6.53711 41.6688 14.8024 41.6688 25C41.6688 27.8722 41.0151 30.5863 39.8558 33.0105C39.4026 33.9504 38.8011 34.8639 38.069 35.6105" stroke="#1D1D1D" stroke-width="2" stroke-linecap="round" stroke-linejoin="round"/>
</svg>
