<svg width="51" height="50" viewBox="0 0 51 50" fill="none" xmlns="http://www.w3.org/2000/svg">
<path d="M32.8149 10.459V16.1111L26.7584 17.7871L20.7019 16.1111V10.459" stroke="#E60024" stroke-width="2" stroke-linecap="round" stroke-linejoin="round"/>
<path d="M35.6648 9.05483L26.3379 6.17969L17.1392 9.05483L26.3379 12.5681L35.6648 9.05483Z" stroke="#E60024" stroke-width="2" stroke-linecap="round" stroke-linejoin="round"/>
<path d="M17.1392 14.6647V9.05469" stroke="#E60024" stroke-width="2" stroke-linecap="round" stroke-linejoin="round"/>
<path d="M18.0584 14.666H16.2058L15.7783 18.1723H18.4859L18.0584 14.666Z" stroke="#E60024" stroke-width="2" stroke-linecap="round" stroke-linejoin="round"/>
<path d="M6.73631 34.6165C6.08791 32.702 5.73877 30.6614 5.73877 28.5366C5.73877 22.4006 8.653 16.9308 13.1918 13.3965" stroke="#1D1D1D" stroke-width="2" stroke-linecap="round" stroke-linejoin="round"/>
<path d="M28.5533 33.941C30.3226 32.1334 30.3226 29.2026 28.5533 27.3949C26.784 25.5873 23.9155 25.5873 22.1462 27.3949C20.3769 29.2026 20.3769 32.1334 22.1462 33.941C23.9155 35.7487 26.784 35.7487 28.5533 33.941Z" stroke="#1D1D1D" stroke-width="2" stroke-linecap="round" stroke-linejoin="round"/>
<path d="M32.5685 43C32.5685 38.9277 29.3377 35.623 25.3482 35.623C21.3586 35.623 18.1279 38.9239 18.1279 43" stroke="#1D1D1D" stroke-width="2" stroke-linecap="round" stroke-linejoin="round"/>
<path d="M36.5633 36.2776C38.6547 35.7709 39.9481 33.628 39.4522 31.4912C38.9562 29.3544 36.8588 28.0329 34.7673 28.5396C32.6759 29.0463 31.3825 31.1893 31.8784 33.3261C32.3744 35.4629 34.4718 36.7843 36.5633 36.2776Z" stroke="#1D1D1D" stroke-width="2" stroke-linecap="round" stroke-linejoin="round"/>
<path d="M41.8695 43.0008C41.8695 39.5005 39.0934 36.6641 35.6673 36.6641C34.0294 36.6641 32.5418 37.3127 31.4336 38.372" stroke="#1D1D1D" stroke-width="2" stroke-linecap="round" stroke-linejoin="round"/>
<path d="M14.1032 36.2776C12.0118 35.7709 10.7184 33.628 11.2143 31.4912C11.7103 29.3544 13.8077 28.0329 15.8992 28.5396C17.9906 29.0463 19.284 31.1893 18.7881 33.3261C18.2921 35.4629 16.1947 36.7843 14.1032 36.2776Z" stroke="#1D1D1D" stroke-width="2" stroke-linecap="round" stroke-linejoin="round"/>
<path d="M8.79696 43.0008C8.79696 39.5005 11.5731 36.6641 14.9992 36.6641C16.6371 36.6641 18.1247 37.3127 19.2329 38.372" stroke="#1D1D1D" stroke-width="2" stroke-linecap="round" stroke-linejoin="round"/>
<path d="M37.1826 13.1719C41.8924 16.6922 44.9278 22.2672 44.9278 28.5294C44.9278 30.6682 44.5715 32.7229 43.9231 34.6443" stroke="#1D1D1D" stroke-width="2" stroke-linecap="round" stroke-linejoin="round"/>
</svg>
