<svg width="51" height="50" viewBox="0 0 51 50" fill="none" xmlns="http://www.w3.org/2000/svg">
<path d="M21.7671 32.9803C21.8324 32.9252 21.8556 32.8348 21.8247 32.7551L21.4772 31.8567C21.4468 31.7781 21.3704 31.727 21.2861 31.7289L20.2392 31.753C20.0736 31.5345 19.8803 31.3355 19.6712 31.16L19.7544 30.1312C19.7613 30.0464 19.7137 29.9665 19.6359 29.9321L18.7458 29.5388C18.669 29.5049 18.5792 29.5225 18.521 29.5829L17.7975 30.3329C17.5293 30.2938 17.2492 30.286 16.9731 30.3094L16.2952 29.5221C16.2404 29.4584 16.1515 29.4358 16.0729 29.4656L15.1608 29.8106C15.0815 29.8407 15.0297 29.9176 15.0317 30.0024L15.056 31.0351C14.8311 31.199 14.6339 31.3901 14.4564 31.5969L13.4131 31.5144C13.3291 31.5077 13.2498 31.5545 13.2151 31.6314L12.8189 32.5087C12.7837 32.5864 12.8018 32.6779 12.8639 32.7365L13.6201 33.4501C13.5807 33.7193 13.5728 33.9924 13.5964 34.2655L12.8023 34.9343C12.737 34.9893 12.7138 35.0798 12.7446 35.1594L13.0921 36.0579C13.1225 36.1365 13.199 36.1876 13.2833 36.1857L14.3301 36.1616C14.4998 36.3801 14.6891 36.579 14.8982 36.7546L14.815 37.7834C14.8081 37.8682 14.8556 37.9481 14.9335 37.9825L15.8236 38.3758C15.9004 38.4097 15.9901 38.3921 16.0484 38.3317L16.7719 37.5817C17.0401 37.6207 17.3162 37.6285 17.5963 37.6051L18.2742 38.3924C18.329 38.4561 18.4179 38.4788 18.4965 38.449L19.4085 38.1039C19.4879 38.0739 19.5397 37.997 19.5377 37.9122L19.5134 36.8795C19.7343 36.7156 19.9355 36.5244 20.113 36.3177L21.1562 36.4002C21.2403 36.4069 21.3195 36.36 21.3543 36.2831L21.7505 35.4059C21.7856 35.3281 21.7676 35.2367 21.7055 35.1781L20.9493 34.4645C20.9887 34.1992 20.9966 33.9222 20.9729 33.6491L21.7671 32.9803ZM17.8961 35.5413C17.0125 35.8768 16.0224 35.4359 15.6832 34.562C15.3439 33.6881 15.7897 32.7049 16.6733 32.3733C17.5569 32.0378 18.547 32.4786 18.8862 33.3526C19.2255 34.2265 18.7797 35.2096 17.8961 35.5413Z" fill="#1D1D1D"/>
<path d="M25.4995 15.5508C24.9472 15.5508 24.4995 15.9985 24.4995 16.5508C24.4995 17.1031 24.9472 17.5508 25.4995 17.5508V15.5508ZM25.4995 17.5508H44.7279V15.5508H25.4995V17.5508ZM44.7279 17.5508C45.0063 17.5508 45.2304 17.7749 45.2304 18.0533H47.2304C47.2304 16.6703 46.1109 15.5508 44.7279 15.5508V17.5508ZM45.2304 18.0533V40.3886H47.2304V18.0533H45.2304Z" fill="#1D1D1D"/>
<path d="M9.66724 28C9.66724 27.4477 9.21952 27 8.66724 27C8.11495 27 7.66724 27.4477 7.66724 28H9.66724ZM9.66724 40.3884V28H7.66724V40.3884H9.66724Z" fill="#1D1D1D"/>
<path d="M31.7825 40.3887V41.111H23.1142V40.3887H6.5V42.6424C6.5 43.3937 7.10678 44.0005 7.85803 44.0005H47.0459C47.7972 44.0005 48.4039 43.3937 48.4039 42.6424V40.3887H31.7897H31.7825Z" stroke="#1D1D1D" stroke-width="2" stroke-linejoin="round"/>
<path d="M19.387 23.8413C19.2805 23.1585 19.3673 22.5655 19.4699 22.1636C21.0477 20.4431 22.0181 18.1608 22.0181 15.6521C22.0181 10.3228 17.6474 6 12.2591 6C6.87067 6 2.5 10.3189 2.5 15.6482C2.5 16.0384 2.52367 16.4324 2.57495 16.8109C2.89446 19.5068 4.35004 21.8593 6.44859 23.4043C8.06984 24.5903 10.0816 25.3004 12.2591 25.3004C13.1387 25.3004 13.9908 25.1834 14.8073 24.9688C15.2807 25.394 15.9552 25.8817 16.8348 26.225C18.349 26.8247 19.7156 26.706 20.493 26.5556C20.6524 26.5247 20.7009 26.3238 20.5869 26.2082C20.1839 25.7995 19.5604 25.0074 19.387 23.8374V23.8413Z" stroke="#E60024" stroke-width="1.5" stroke-miterlimit="10"/>
<path d="M7.9126 21.4291C8.24 22.0923 8.61869 22.7165 9.04866 23.2861C10.7567 25.5607 13.7901 25.6114 15.5731 23.3915C17.1944 21.3705 18.2121 18.659 18.2594 15.6666C18.2594 15.5106 18.1884 14.742 18.1845 14.5898" stroke="#E60024" stroke-width="1.5" stroke-miterlimit="10"/>
<path d="M17.6983 11.5861C17.3038 10.2791 16.7121 9.08136 15.9666 8.04358C14.1915 5.57397 11.02 5.52325 9.16204 7.93433C7.62363 9.93577 6.66508 12.5731 6.61774 15.4797C6.60591 16.2288 6.65324 16.9623 6.75975 17.6723" stroke="#E60024" stroke-width="1.5" stroke-miterlimit="10"/>
<path d="M12.7566 6.15625L12.4529 24.493" stroke="#E60024" stroke-width="1.5" stroke-miterlimit="10"/>
<path d="M4.18091 10.8652C6.19268 12.8739 9.14722 14.1688 12.4607 14.2234C13.4074 14.239 14.3265 14.1532 15.2101 13.9737" stroke="#E60024" stroke-width="1.5" stroke-miterlimit="10"/>
<path d="M19.79 21.6632C17.8729 19.8574 15.1866 18.7107 12.1966 18.6639C11.2972 18.6483 10.4215 18.7341 9.5813 18.9096" stroke="#E60024" stroke-width="1.5" stroke-miterlimit="10"/>
<path d="M18.835 13.5523C18.8192 14.4806 18.0461 15.2177 17.1112 15.2021C16.1763 15.1865 15.4268 14.4221 15.4426 13.4977C15.4584 12.5694 16.2316 11.8323 17.1664 11.8479C18.1013 11.8635 18.8508 12.628 18.835 13.5523Z" stroke="#E60024" stroke-width="1.5" stroke-miterlimit="10"/>
<path d="M9.34381 19.4703C9.32803 20.3986 8.55488 21.1357 7.62 21.1201C6.68512 21.1045 5.93564 20.34 5.95142 19.4157C5.9672 18.4874 6.74035 17.7503 7.67523 17.7659C8.61011 17.7815 9.35959 18.5459 9.34381 19.4703Z" stroke="#E60024" stroke-width="1.5" stroke-miterlimit="10"/>
<path d="M41.923 25.976L41.1699 24.022C41.0939 23.825 40.9026 23.697 40.6916 23.7019L38.7199 23.7483C38.3925 23.3191 38.0178 22.929 37.6075 22.5895L37.7643 20.6496C37.7814 20.4376 37.6625 20.2379 37.4679 20.152L35.8601 19.4418C35.6682 19.357 35.4437 19.4011 35.2981 19.5522L33.9351 20.9665C33.4065 20.8924 32.8621 20.8768 32.3217 20.9236L31.0392 19.4399C30.9021 19.2813 30.6805 19.225 30.4843 19.2991L28.8389 19.9205C28.6402 19.9956 28.5106 20.188 28.5157 20.4003L28.5624 22.3437C28.1246 22.6676 27.7341 23.0382 27.3869 23.444L25.4174 23.2916C25.2074 23.2753 25.0098 23.3924 24.9231 23.5843L24.2082 25.1676C24.1204 25.3619 24.1655 25.5904 24.3205 25.7368L25.742 27.0801C25.6671 27.6029 25.6513 28.1413 25.6947 28.6797L24.1993 29.9441C24.0366 30.0817 23.979 30.3072 24.0557 30.506L24.6805 32.1243C24.7565 32.3211 24.9478 32.4491 25.1587 32.4441L27.1305 32.3977C27.458 32.8269 27.8327 33.217 28.2429 33.5565L28.0894 35.497C28.0727 35.7087 28.1916 35.908 28.3859 35.9938L29.9947 36.7044C30.1864 36.7891 30.4107 36.7452 30.5563 36.5944L31.9193 35.1834C32.4479 35.2575 32.9883 35.2731 33.5327 35.2302L34.8113 36.7132C34.9484 36.8723 35.1702 36.9287 35.3666 36.8545L37.0121 36.2331C37.2105 36.1581 37.3401 35.9662 37.3353 35.7541L37.292 33.8101C37.7259 33.4862 38.1203 33.1156 38.4635 32.7099L40.4331 32.8623C40.6431 32.8785 40.8407 32.7614 40.9274 32.5695L41.6421 30.9866C41.7299 30.7921 41.6846 30.5634 41.5294 30.417L40.1045 29.0737C40.1794 28.5509 40.1992 28.0125 40.1518 27.478L41.9123 25.9894C41.9168 25.9857 41.9204 25.9811 41.923 25.976ZM34.1244 31.1766C32.3888 31.832 30.448 30.9737 29.7892 29.2571C29.1265 27.5405 29.9944 25.621 31.73 24.9655C33.4617 24.3101 35.4064 25.1684 36.0652 26.885C36.7279 28.6016 35.86 30.5212 34.1244 31.1766Z" fill="#E60024"/>
</svg>
